{"title":"Up.in.the.air.2009.DvDRiP.XViD.AC3(5.1).Optional MultiSub.Zen_Bu","uid":5800220,"size":1520273307,"categoryP":"video","categoryS":"movies","magnet":"?xt=urn:btih:0784acf3837deb707fd2743673fe10e43f1896b2&amp;dn=Up.in.the.air.2009.DvDRiP.XViD.AC3%285.1%29.Optional+MultiSub.Zen_Bu&amp;tr=udp%3A%2F%2Ftracker.openbittorrent.com%3A80&amp;tr=udp%3A%2F%2Fopen.demonii.com%3A1337&amp;tr=udp%3A%2F%2Ftracker.coppersurfer.tk%3A6969&amp;tr=udp%3A%2F%2Fexodus.desync.com%3A6969","seeders":1,"leechers":0,"uploader":"Zen_Bud","files":-1,"time":1283241580,"description":"\nComplete name                    : Up in the air 2009.avi\nFormat                           : AVI\nFile size                        : 1.37 GiB\nDuration                         : 1h 44mn\nOverall bit rate                 : 1 870 Kbps\n\nVideo\n\nFormat                           : MPEG-4 Visual\nCodec ID/Hint                    : XviD\nDuration                         : 1h 44mn\nBit rate                         : 1 411 Kbps\nWidth                            : 720 pixels\nHeight                           : 552 pixels\nDisplay aspect ratio             : 1.855\nStream size                      : 1.03 GiB (75%)\nWriting library                  : XviD 1.1.2 (UTC 2006-11-01)\n\nAudio\n\nFormat                           : AC-3\nDuration                         : 1h 44mn\nBit rate                         : 448 Kbps\nChannel(s)                       : 6 channels\nChannel positions                : Front: L C R, Side: L R, LFE\nSampling rate                    : 48.0 KHz\nBit depth                        : 16 bits\nStream size                      : 336 MiB (24%)\n\n\nText #1\nLanguage                         : English\n\nText #2\nLanguage                         : Dutch\n\nText #3\nLanguage                         : Danish\n\nText #4\nLanguage                         : Finnish\n\nText #5\nLanguage                         : Norwegian\n\nText #6\nLanguage                         : Swedish\n\nText #7\nLanguage                         : English\n\nText #8\nLanguage                         : English","torrent":{"xt":"urn:btih:0784acf3837deb707fd2743673fe10e43f1896b2","amp;dn":"Up.in.the.air.2009.DvDRiP.XViD.AC3%285.1%29.Optional+MultiSub.Zen_Bu","amp;tr":["udp%3A%2F%2Ftracker.openbittorrent.com%3A80","udp%3A%2F%2Fopen.demonii.com%3A1337","udp%3A%2F%2Ftracker.coppersurfer.tk%3A6969","udp%3A%2F%2Fexodus.desync.com%3A6969"],"infoHash":"0784acf3837deb707fd2743673fe10e43f1896b2","infoHashBuffer":{"type":"Buffer","data":[7,132,172,243,131,125,235,112,127,210,116,54,115,254,16,228,63,24,150,178]},"announce":[],"urlList":[]}}